# AST/ASF file generated using VICON BodyLanguage
# -----------------------------------------------
:version 1.10
:name VICON
:units
  mass 1.0
  length 0.45
  angle deg
:documentation
   .ast/.asf automatically generated from VICON data using
   VICON BodyBuilder and BodyLanguage model FoxedUp or BRILLIANT.MOD
:root
   order TX TY TZ RX RY RZ
   axis XYZ
   position 0 0 0  
   orientation 0 0 0 
:bonedata
  begin
     id 1 
     name lhipjoint
     direction 0.756833 -0.6125 0.228138 
     length 2.53827 
     axis 0 0 0  XYZ
  end
  begin
     id 2 
     name lfemur
     direction 0.34202 -0.939693 0  
     length 6.51821  
     axis 0 0 20  XYZ
    dof rx ry rz
    limits (-160.0 20.0)
           (-70.0 70.0)
           (-60.0 70.0)
  end
  begin
     id 3 
     name ltibia
     direction 0.34202 -0.939693 0   
     length 6.99902   
     axis 0 0 20   XYZ
    dof rx
    limits (-10.0 170.0)
  end
  begin
     id 4 
     name lfoot
     direction 0.0951515 -0.261427 0.960522   
     length 1.92102   
     axis -90 7.62852e-016 20   XYZ
    dof rx rz
    limits (-45.0 90.0)
           (-70.0 20.0)
  end
  begin
     id 5 
     name ltoes
     direction 1.53539e-011 -4.21781e-011 1   
     length 0.964376   
     axis -90 7.62852e-016 20   XYZ
    dof rx
    limits (-90.0 20.0)
  end
  begin
     id 6 
     name rhipjoint
     direction -0.752153 -0.617542 0.230017   
     length 2.51754  
     axis 0 0 0  XYZ 
  end
  begin
     id 7 
     name rfemur
     direction -0.34202 -0.939693 0   
     length 6.82377   
     axis 0 0 -20   XYZ
    dof rx ry rz
    limits (-160.0 20.0)
           (-70.0 70.0)
           (-70.0 60.0)
  end
  begin
     id 8 
     name rtibia
     direction -0.34202 -0.939693 0   
     length 6.98689   
     axis 0 0 -20   XYZ
    dof rx
    limits (-10.0 170.0)
 end
 begin
     id 9 
     name rfoot
     direction -0.0900426 -0.24739 0.964723   
     length 2.03215  
     axis -90 -7.62852e-016 -20   XYZ
    dof rx rz
    limits (-45.0 90.0)
           (-20.0 70.0)
  end
  begin
     id 10 
     name rtoes
     direction -1.53466e-011 -4.22206e-011 1   
     length 1.0197   
     axis -90 -7.62852e-016 -20   XYZ
    dof rx
    limits (-90.0 20.0)
  end
  begin
     id 11 
     name lowerback
     direction 0.0184183 0.995705 -0.0907278   
     length 2.019   
     axis 0 0 0   XYZ
    dof rx ry rz
    limits (-20.0 45.0)
           (-30.0 30.0)
           (-30.0 30.0)
  end
  begin
     id 12 
     name upperback
     direction 0.00281055 0.998777 0.0493607   
     length 1.99623   
     axis 0 0 0   XYZ
    dof rx ry rz
    limits (-20.0 45.0)
           (-30.0 30.0)
           (-30.0 30.0)
  end
  begin
     id 13 
     name thorax
     direction -0.00665507 0.995706 0.092331   
     length 2.02811   
     axis 0 0 0   XYZ
    dof rx ry rz
    limits (-20.0 45.0)
           (-30.0 30.0)
           (-30.0 30.0)
  end
  begin
     id 14 
     name lowerneck
     direction -0.0960965 0.994358 0.0449225   
     length 1.71265   
     axis 0 0 0   XYZ
    dof rx ry rz
    limits (-20.0 45.0)
           (-30.0 30.0)
           (-30.0 30.0)
  end
  begin
     id 15 
     name upperneck
     direction 0.13642 0.985357 -0.102278   
     length 1.73016   
     axis 0 0 0   XYZ
    dof rx ry rz
    limits (-20.0 45.0)
           (-30.0 30.0)
           (-30.0 30.0)
  end
  begin
     id 16
     name head
     direction 0.0556079 0.997632 -0.040479  
     length 1.74275  
     axis 0 0 0   XYZ
    dof rx ry rz
    limits (-20.0 45.0)
           (-30.0 30.0)
           (-30.0 30.0)
  end
  begin
     id 17 
     name lclavicle
     direction 0.90877 0.417247 -0.00652364  
     length 3.25514  
     axis 0 0 0   XYZ
    dof ry rz
    limits (-20.0 10.0)
           (0.0 20.0)
  end
  begin
     id 18 
     name lhumerus
     direction 1 -4.48949e-011 8.31417e-028   
     length 4.84834   
     axis 180 -30 -90   XYZ
    dof rx ry rz
    limits (-60.0 90.0)
           (-90.0 90.0)
           (-90.0 90.0)
  end
  begin
     id 19
     name lradius
     direction 1 -4.48984e-011 3.45616e-027   
     length 2.99713   
     axis 180 -30 -90   XYZ
    dof rx
    limits (-10.0 170.0)
  end
  begin
     id 20
     name lwrist
     direction 1 -4.4891e-011 4.0479e-027   
     length 1.49857   
     axis -1.61768e-015 90 90   XYZ
    dof ry
    limits (-180.0 0.0)
 end
  begin
     id 21 
     name lhand
     direction 1 -4.49025e-011 8.0958e-027   
     length 0.693987   
     axis -5.16581e-015 90 90   XYZ
    dof rx rz
    limits (-90.0 90.0)
           (-45.0 45.0)
  end
  begin
     id 22 
     name lfingers
     direction 1 -4.4888e-011 1.61916e-026   
     length 0.55951   
     axis -1.03316e-014 90 90   XYZ
    dof rx
    limits (0.0 90.0)
  end
  begin
     id 23
     name lthumb
     direction 0.707107 -6.3493e-011 0.707107   
     length 0.803348   
     axis -90 45 2.85299e-015   XYZ
    dof rx rz
    limits (-45.0 45.0)
           (-45.0 45.0)
  end
  begin
     id 24 
     name rclavicle
     direction -0.906655 0.41906 0.0486307   
     length 3.3311  
     axis 0 0 0   XYZ 
    dof ry rz
    limits (-10.0 20.0)
           (-20.0 0.0)
  end
  begin
     id 25 
     name rhumerus
     direction -1 -4.48959e-011 6.37764e-018  
     length 4.93457   
     axis 180 30 90   XYZ
    dof rx ry rz
    limits (-90.0 60.0)
           (-90.0 90.0)
           (-90.0 90.0)
  end
  begin
     id 26 
     name rradius
     direction -1 -4.48957e-011 2.20847e-027   
     length 3.3443   
     axis 180 30 90   XYZ
    dof rx
    limits (-10.0 170.0)
  end
  begin
     id 27 
     name rwrist
     direction -1 -4.49008e-011 4.0479e-027   
     length 1.67215   
     axis -1.61768e-015 -90 -90   XYZ
    dof ry
    limits (-180.0 0.0)
  end
  begin
     id 28
     name rhand
     direction -1 -4.49013e-011 8.0958e-027   
     length 0.677363   
     axis -5.16581e-015 -90 -90   XYZ
    dof rx rz
    limits (-90.0 90.0)
           (-45.0 45.0)
  end
  begin
     id 29
     name rfingers
     direction -1 -4.48832e-011 1.61916e-026   
     length 0.546107   
     axis -1.03316e-014 -90 -90   XYZ
    dof rx
    limits (0.0 90.0)
  end
  begin
     id 30
     name rthumb
     direction -0.707107 -6.34895e-011 0.707107   
     length 0.784104   
     axis -90 -45 -2.85299e-015   XYZ
    dof rx rz
    limits (-45.0 45.0)
           (-45.0 45.0)
  end
:hierarchy
  begin
    root lhipjoint rhipjoint lowerback
    lhipjoint lfemur
    lfemur ltibia
    ltibia lfoot
    lfoot ltoes
    rhipjoint rfemur
    rfemur rtibia
    rtibia rfoot
    rfoot rtoes
    lowerback upperback
    upperback thorax
    thorax lowerneck lclavicle rclavicle
    lowerneck upperneck
    upperneck head
    lclavicle lhumerus
    lhumerus lradius
    lradius lwrist
    lwrist lhand lthumb
    lhand lfingers
    rclavicle rhumerus
    rhumerus rradius
    rradius rwrist
    rwrist rhand rthumb
    rhand rfingers
  end

#!OML:ASF H:\Terrain\Patient Classification 1\junglegym\FridayTest\junglegym.ASF
:FULLY-SPECIFIED
:DEGREES
657
root -16.7304 16.9043 0.184916 157.449 -85.0963 -198.812
lowerback 16.9345 0.518916 2.76411
upperback -2.25226 1.11127 -1.34943
thorax -11.9721 0.270913 -3.36302
lowerneck 8.4807 0.840345 -14.8798
upperneck 38.7686 -6.71707 13.5343
head 12.397 -5.46036 7.34673
rclavicle -2.18663e-014 3.67752e-014
rhumerus 101.934 -27.2474 -60.6852
rradius 30.3502
rwrist 1.78268
rhand -10.6001 26.123
rfingers 7.12502
rthumb 15.4057 -3.28302
lclavicle -2.18663e-014 3.67752e-014
lhumerus 104.984 23.8462 58.7125
lradius 33.31
lwrist -26.1148
lhand 4.2052 22.192
lfingers 7.12502
lthumb 29.6116 49.8489
rfemur -40.6715 12.9058 23.8016
rtibia 42.0471
rfoot -2.97659 -6.51316
rtoes 44.2374
lfemur -39.8809 -14.1498 -10.701
ltibia 32.2774
lfoot 5.16785 17.8602
ltoes -26.4893
658
root -16.9071 17.0592 0.189422 164.888 -85.6236 -207.971
lowerback 17.7518 0.466196 2.00371
upperback -1.9358 0.892304 -1.29017
thorax -12.1166 0.219901 -2.81793
lowerneck 8.39575 0.93499 -15.5184
upperneck 39.0854 -6.54504 13.3376
head 12.5502 -5.51072 7.41043
rclavicle -1.22253e-014 -4.27387e-015
rhumerus 101.589 -27.2976 -59.5795
rradius 31.0992
rwrist 0.535517
rhand -10.1604 24.641
rfingers 7.12502
rthumb 15.8292 -4.73193
lclavicle -1.22253e-014 -4.27387e-015
lhumerus 103.701 24.7781 58.5915
lradius 34.335
lwrist -25.5461
lhand 4.60787 22.1812
lfingers 7.12502
lthumb 29.9959 49.7692
rfemur -38.9451 12.8698 22.7291
rtibia 42.078
rfoot -3.05344 -7.84022
rtoes 50.556
lfemur -38.0116 -17.6355 -10.4354
ltibia 32.1162
lfoot -6.08211 20.5873
ltoes 24.0313
659
root -17.1854 17.1817 0.161446 147.921 -85.3481 -192.33
lowerback 18.1522 0.291637 3.04058
upperback -1.70516 0.952502 -0.822822
thorax -12.0769 0.201119 -2.91227
lowerneck 8.30035 0.913431 -15.5275
upperneck 39.3927 -6.56706 13.1488
head 12.7152 -5.56374 7.34259
rclavicle -5.96354e-015 -2.20651e-014
rhumerus 101.263 -27.6293 -58.6765
rradius 31.6275
rwrist -1.00853
rhand -9.67636 23.8068
rfingers 7.12502
rthumb 16.2953 -5.52848
lclavicle -5.96354e-015 -2.20651e-014
lhumerus 103.925 25.1151 58.6157
lradius 34.1757
lwrist -25.366
lhand 4.95128 21.4864
lfingers 7.12502
lthumb 30.3235 49.0146
rfemur -37.7223 13.5731 23.8531
rtibia 42.5388
rfoot -3.83822 -8.97221
rtoes 53.5886
lfemur -36.243 -14.2048 -11.3594
ltibia 31.587
lfoot 7.69681 16.381
ltoes -37.2246
660
root -17.4742 17.2928 0.163729 132.643 -84.5385 -177.527
lowerback 17.9052 0.0473254 4.43819
upperback -1.7856 1.00145 -0.22901
thorax -12.0151 0.156882 -3.05899
lowerneck 8.2673 1.01723 -15.8749
upperneck 39.6991 -6.47768 13.1616
head 12.8638 -5.6047 7.43562
rclavicle 2.62893e-014 -3.00165e-014
rhumerus 100.966 -27.9051 -57.6859
rradius 32.0829
rwrist -2.48583
rhand -9.15595 23.274
rfingers 7.12502
rthumb 16.7963 -6.01946
lclavicle 2.62893e-014 -3.00165e-014
lhumerus 104.453 25.3274 58.9648
lradius 33.5176
lwrist -25.5568
lhand 5.49911 20.9983
lfingers 7.12502
lthumb 30.8459 48.4291
rfemur -36.9244 13.089 25.6124
rtibia 42.3896
rfoot -3.42885 -8.89578
rtoes 53.0981
lfemur -35.9823 -13.1941 -10.1378
ltibia 31.6207
lfoot 5.89635 16.1596
ltoes -30.4822
661
root -17.7026 17.4198 0.198869 131.184 -84.4299 -176.548
lowerback 17.8167 -0.0670925 5.48644
upperback -1.89128 1.06482 -0.355674
thorax -12.0649 0.107861 -3.81481
lowerneck 8.45001 1.11881 -16.2339
upperneck 39.8262 -6.49822 13.4513
head 12.9143 -5.6761 7.6371
rclavicle 1.99282e-014 -3.72721e-014
rhumerus 100.737 -28.3993 -57.2546
rradius 32.2106
rwrist -2.64493
rhand -8.29884 23.0809
rfingers 7.12502
rthumb 17.6213 -6.14054
lclavicle 1.99282e-014 -3.72721e-014
lhumerus 104.972 25.2375 59.0185
lradius 33.0682
lwrist -25.6285
lhand 6.28543 21.7755
lfingers 7.12502
lthumb 31.5953 49.0618
rfemur -36.6589 13.2119 25.085
rtibia 42.0502
rfoot -3.19516 -9.19765
rtoes 54.7489
lfemur -36.0025 -13.11 -10.2286
ltibia 32.1954
lfoot 3.77739 16.7476
ltoes -21.4128
662
root -17.8808 17.5803 0.183675 129.653 -84.1382 -175.627
lowerback 17.5317 0.133441 5.86455
upperback -1.74161 1.37408 -0.500483
thorax -11.6847 0.238973 -4.26603
lowerneck 8.24458 0.800436 -15.4499
upperneck 39.9177 -6.908 13.2778
head 13.0481 -5.76013 7.38467
rclavicle 1.05356e-014 1.94809e-014
rhumerus 100.419 -29.5448 -57.0726
rradius 32.279
rwrist -2.34883
rhand -7.79761 22.9274
rfingers 7.12502
rthumb 18.1036 -6.25014
lclavicle 1.05356e-014 1.94809e-014
lhumerus 105.97 24.6512 59.2119
lradius 32.8566
lwrist -25.8484
lhand 7.00354 22.4641
lfingers 7.12502
lthumb 32.2791 49.6136
rfemur -35.9941 14.1883 24.9815
rtibia 41.4556
rfoot -2.59326 -10.5235
rtoes 52.8423
lfemur -35.7631 -13.2387 -9.80508
ltibia 33.0888
lfoot 0.759358 17.335
ltoes -6.27653
663
root -18.1057 17.7246 0.117358 117.313 -82.7279 -164.462
lowerback 17.6926 0.0310578 6.68272
upperback -1.67019 1.51554 0.357362
thorax -11.6896 0.284667 -3.81774
lowerneck 8.50129 0.816168 -15.2252
upperneck 40.1036 -6.86857 12.9298
head 13.0633 -5.77545 7.1996
rclavicle -2.06736e-014 3.63776e-014
rhumerus 99.8948 -29.9361 -56.1117
rradius 32.3891
rwrist -2.7934
rhand -7.43785 22.6099
rfingers 7.12502
rthumb 18.4497 -6.53515
lclavicle -2.06736e-014 3.63776e-014
lhumerus 105.89 24.7064 59.0108
lradius 32.7859
lwrist -25.6978
lhand 7.60289 22.6677
lfingers 7.12502
lthumb 32.8494 49.6995
rfemur -34.1357 16.378 26.7279
rtibia 41.3115
rfoot -5.87656 -11.9959
rtoes 56.8496
lfemur -34.7198 -13.1866 -7.58443
ltibia 33.4058
lfoot -2.22442 16.784
ltoes 14.7993
664
root -18.3488 17.8437 0.0852378 111.95 -81.606 -159.939
lowerback 17.7579 -0.168539 7.39827
upperback -1.69561 1.47532 0.990301
thorax -11.7677 0.236441 -3.50926
lowerneck 8.58317 0.959603 -15.2838
upperneck 40.2604 -6.57377 12.5835
head 13.0586 -5.70008 7.08626
rclavicle -3.18055e-015 4.96962e-014
rhumerus 100.39 -29.752 -55.8197
rradius 31.8715
rwrist -3.1501
rhand -6.9626 22.3282
rfingers 7.12502
rthumb 18.9068 -6.77296
lclavicle -3.18055e-015 4.96962e-014
lhumerus 105.282 25.7407 57.9661
lradius 32.9077
lwrist -24.6661
lhand 8.16448 22.9762
lfingers 7.12502
lthumb 33.3834 49.8947
rfemur -33.1816 17.169 28.0992
rtibia 41.4996
rfoot -7.07009 -12.3566
rtoes 57.2977
lfemur -34.0604 -12.0561 -6.67584
ltibia 33.5972
lfoot 0.0151597 15.6905
ltoes 4.15837
665
root -18.6511 17.9296 0.0728378 115.755 -82.935 -163.738
lowerback 16.896 0.200092 6.48052
upperback -1.73767 1.60673 0.0226889
thorax -11.2865 0.34565 -4.07847
lowerneck 8.5303 0.390045 -13.4033
upperneck 40.033 -7.2434 12.1249
head 12.9971 -5.74509 6.46744
rclavicle 2.34566e-014 -8.94531e-015
rhumerus 100.595 -30.9699 -56.0556
rradius 31.1007
rwrist -3.11244
rhand -6.95336 21.7036
rfingers 7.12502
rthumb 18.9157 -7.39663
lclavicle 2.34566e-014 -8.94531e-015
lhumerus 106.083 25.6483 57.1015
lradius 32.842
lwrist -23.5376
lhand 8.36175 22.8538
lfingers 7.12502
lthumb 33.5709 49.7318
rfemur -33.7952 17.4546 26.2799
rtibia 41.9766
rfoot -7.58564 -12.3337
rtoes 57.8117
lfemur -34.1655 -9.42496 -9.66033
ltibia 33.9233
lfoot 1.80516 13.2554
ltoes -3.18454
666
root -18.8863 18.0425 0.0396721 118.347 -83.1463 -166.524
lowerback 16.2444 0.424399 5.66272
upperback -1.88227 1.70792 0.0819712
thorax -11.0783 0.45435 -3.55801
lowerneck 9.05297 0.426234 -13.1759
upperneck 39.6701 -7.13489 11.9467
head 12.6905 -5.68126 6.34496
rclavicle -7.35503e-015 -2.48481e-014
rhumerus 99.3214 -31.4969 -55.0394
rradius 31.9653
rwrist -4.23168
rhand -6.86418 21.1294
rfingers 7.12502
rthumb 19.0014 -7.96249
lclavicle -7.35503e-015 -2.48481e-014
lhumerus 106.782 24.8689 57.8337
lradius 31.9774
lwrist -24.5777
lhand 7.95522 22.4145
lfingers 7.12502
lthumb 33.1845 49.3756
rfemur -34.0267 17.6848 25.941
rtibia 42.5076
rfoot -8.04129 -12.1939
rtoes 57.961
lfemur -34.0255 -8.9108 -10.1375
ltibia 33.9133
lfoot 2.91158 12.9849
ltoes -10.7627
